<svg width="26px" height="18px" viewBox="0 0 26 18" version="1.1" xmlns="http://www.w3.org/2000/svg" xmlns:xlink="http://www.w3.org/1999/xlink">
    <!-- Generator: Sketch 49.3 (51167) - http://www.bohemiancoding.com/sketch -->
    <desc>Created with Sketch.</desc>
    <defs></defs>
    <g id="Page-1" stroke="none" stroke-width="1" fill="none" fill-rule="evenodd" opacity="0.7">
        <g id="campains" transform="translate(-311.000000, -3852.000000)" fill="#030104">
            <g id="Share-this" transform="translate(20.000000, 3736.000000)">
                <g id="icons/mail" transform="translate(289.000000, 110.000000)">
                    <g id="mail" transform="translate(2.500000, 6.000000)">
                        <path d="M12.5,12.6 L9.40714286,9.8712 L0.564285714,17.5122 C0.885714286,17.8128 1.31964286,18 1.79821429,18 L23.2017857,18 C23.6785714,18 24.1107143,17.8128 24.4303571,17.5122 L15.5928571,9.8712 L12.5,12.6 Z" id="Shape" fill-rule="nonzero"></path>
                        <path d="M24.4357143,0.4878 C24.1142857,0.1854 23.6821429,0 23.2017857,0 L1.79821429,0 C1.32142857,0 0.889285714,0.1872 0.567857143,0.4914 L12.5,10.8 L24.4357143,0.4878 Z" id="Shape" fill-rule="nonzero"></path>
                        <polygon id="Shape" fill-rule="nonzero" points="0 1.5804 0 16.5348 8.63035714 9.1422"></polygon>
                        <polygon id="Shape" fill-rule="nonzero" points="16.3696429 9.1422 25 16.5348 25 1.575"></polygon>
                    </g>
                </g>
            </g>
        </g>
    </g>
</svg>