<svg width="14px" height="24px" viewBox="0 0 14 24" version="1.1" xmlns="http://www.w3.org/2000/svg" xmlns:xlink="http://www.w3.org/1999/xlink">
    <!-- Generator: Sketch 49.3 (51167) - http://www.bohemiancoding.com/sketch -->
    <desc>Created with Sketch.</desc>
    <defs></defs>
    <g id="Page-1" stroke="none" stroke-width="1" fill="none" fill-rule="evenodd" opacity="0.699999988">
        <g id="campains" transform="translate(-37.000000, -3848.000000)" fill="#000000" fill-rule="nonzero">
            <g id="Share-this" transform="translate(20.000000, 3736.000000)">
                <g id="icons/facebook" transform="translate(9.000000, 109.000000)">
                    <path d="M21.0104582,3.50478554 L17.8923493,3.5 C14.3892609,3.5 12.1254113,5.72168472 12.1254113,9.16033103 L12.1254113,11.7701227 L8.99029229,11.7701227 C8.71938078,11.7701227 8.5,11.9802077 8.5,12.2393444 L8.5,16.020635 C8.5,16.2797718 8.71963093,16.4896175 8.99029229,16.4896175 L12.1254113,16.4896175 L12.1254113,26.0310176 C12.1254113,26.2901543 12.3447921,26.5 12.6157036,26.5 L16.7061421,26.5 C16.9770536,26.5 17.1964344,26.289915 17.1964344,26.0310176 L17.1964344,16.4896175 L20.8621197,16.4896175 C21.1330312,16.4896175 21.352412,16.2797718 21.352412,16.020635 L21.3539129,12.2393444 C21.3539129,12.1149205 21.302132,11.9957606 21.2103273,11.9077068 C21.1185226,11.8196529 20.993448,11.7701227 20.8633705,11.7701227 L17.1964344,11.7701227 L17.1964344,9.55776973 C17.1964344,8.49442381 17.4613423,7.95461544 18.9094556,7.95461544 L21.0099579,7.95389761 C21.2806192,7.95389761 21.5,7.74381262 21.5,7.48491516 L21.5,3.97376798 C21.5,3.71510981 21.2808694,3.50526409 21.0104582,3.50478554 Z" id="facebook"></path>
                </g>
            </g>
        </g>
    </g>
</svg>