<svg width="24px" height="24px" viewBox="0 0 24 24" version="1.1" xmlns="http://www.w3.org/2000/svg" xmlns:xlink="http://www.w3.org/1999/xlink">
    <!-- Generator: Sketch 49.3 (51167) - http://www.bohemiancoding.com/sketch -->
    <desc>Created with Sketch.</desc>
    <defs></defs>
    <g id="Page-1" stroke="none" stroke-width="1" fill="none" fill-rule="evenodd" opacity="0.69688666">
        <g id="campains" transform="translate(-121.000000, -3848.000000)" fill="#000000">
            <g id="Share-this" transform="translate(20.000000, 3736.000000)">
                <g id="icons/instagram" transform="translate(98.000000, 109.000000)">
                    <g id="instagram-logo" transform="translate(3.500000, 3.500000)">
                        <path d="M16.6526955,0 L6.34703245,0 C2.84728088,0 0,2.84741692 0,6.34716849 L0,16.6528315 C0,20.1527191 2.84728088,23 6.34703245,23 L16.6526955,23 C20.1527191,23 23,20.1525831 23,16.6528315 L23,6.34716849 C23.000136,2.84741692 20.1527191,0 16.6526955,0 Z M20.9594646,16.6528315 C20.9594646,19.0274929 19.0274929,20.9593285 16.6528315,20.9593285 L6.34703245,20.9593285 C3.97250713,20.9594646 2.04067147,19.0274929 2.04067147,16.6528315 L2.04067147,6.34716849 C2.04067147,3.97264317 3.97250713,2.04067147 6.34703245,2.04067147 L16.6526955,2.04067147 C19.0273568,2.04067147 20.9593285,3.97264317 20.9593285,6.34716849 L20.9593285,16.6528315 L20.9594646,16.6528315 Z" id="Shape" fill-rule="nonzero"></path>
                        <path d="M11.5,5.75 C8.32940225,5.75 5.75,8.32946146 5.75,11.500132 C5.75,14.6706705 8.32940225,17.25 11.5,17.25 C14.6705978,17.25 17.25,14.6706705 17.25,11.500132 C17.25,8.32946146 14.6705978,5.75 11.5,5.75 Z M11.5,15.2699314 C9.42124624,15.2699314 7.72989119,13.5788015 7.72989119,11.5 C7.72989119,9.42106653 9.42111425,7.72980465 11.5,7.72980465 C13.5788858,7.72980465 15.2701088,9.42106653 15.2701088,11.5 C15.2701088,13.5788015 13.5787538,15.2699314 11.5,15.2699314 Z" id="Shape" fill-rule="nonzero"></path>
                        <path d="M18.0714286,4.10714286 C17.6398052,4.10714286 17.2157987,4.28188312 16.910974,4.58805195 C16.6046558,4.89272727 16.4285714,5.31688312 16.4285714,5.75 C16.4285714,6.18177273 16.6048052,6.60577922 16.910974,6.91194805 C17.2156494,7.21662338 17.6398052,7.39285714 18.0714286,7.39285714 C18.5045455,7.39285714 18.9272078,7.21662338 19.2333766,6.91194805 C19.5395455,6.60577922 19.7142857,6.18162338 19.7142857,5.75 C19.7142857,5.31688312 19.5395455,4.89272727 19.2333766,4.58805195 C18.9287013,4.28188312 18.5045455,4.10714286 18.0714286,4.10714286 Z" id="Shape" fill-rule="nonzero"></path>
                    </g>
                </g>
            </g>
        </g>
    </g>
</svg>