<svg width="42px" height="42px" viewBox="0 0 42 42" version="1.1" xmlns="http://www.w3.org/2000/svg" xmlns:xlink="http://www.w3.org/1999/xlink">
    <!-- Generator: Sketch 49.3 (51167) - http://www.bohemiancoding.com/sketch -->
    <desc>Created with Sketch.</desc>
    <defs></defs>
    <g id="Page-1" stroke="none" stroke-width="1" fill="none" fill-rule="evenodd">
        <g id="Pitch-3" transform="translate(-213.000000, -333.000000)" fill="#DC4234">
            <g id="Record-Video" transform="translate(214.000000, 334.000000)">
                <g id="recordvideo">
                    <path d="M20,2.05128205 C29.8965517,2.05128205 37.9487179,10.1028294 37.9487179,20 C37.9487179,29.8965517 29.8965517,37.9487179 20,37.9487179 C10.1028294,37.9487179 2.05128205,29.8965517 2.05128205,20 C2.05128205,10.1028294 10.1028294,2.05128205 20,2.05128205 Z M0,20 C0,31.045625 8.954375,40 20,40 C31.04625,40 40,31.045625 40,20 C40,8.95375 31.04625,0 20,0 C8.954375,0 0,8.95375 0,20 Z" id="Shape" stroke="#FFFFFF" stroke-width="0.7" fill-rule="nonzero"></path>
                    <g id="icons/recordvideo" transform="translate(8.000000, 8.000000)" fill-rule="evenodd" stroke-width="1">
                        <g id="Shape_export">
                            <path d="M20.6281755,7.986 C20.4018476,7.8835 20.134719,7.91825 19.9438029,8.07575 L16.3058763,11.0755 L16.3058763,8.875 C16.3058763,7.841 15.4426482,7 14.381319,7 L3.92455735,7 C2.86322812,7 2,7.841 2,8.875 L2,15.125 C2,16.159 2.86322812,17 3.92455735,17 L14.381319,17 C15.4426482,17 16.3058763,16.159 16.3058763,15.125 L16.3058763,12.9245 L19.9440595,15.924 C20.0623557,16.0215 20.2096484,16.072 20.3584809,16.072 C20.4498332,16.072 20.542212,16.053 20.6284321,16.014 C20.8550167,15.91175 21,15.6905 21,15.447 L21,8.553 C20.9997434,8.3095 20.8547601,8.0885 20.6281755,7.986 Z M15,15.3333333 C15,15.7010667 14.7059672,16 14.3442623,16 L3.6557377,16 C3.29403279,16 3,15.7010667 3,15.3333333 L3,8.66666667 C3,8.29893333 3.29403279,8 3.6557377,8 L14.3442623,8 C14.7059672,8 15,8.29893333 15,8.66666667 L15,15.3333333 Z M19.9996977,14 L17,12 L20,10 L20,14 L19.9996977,14 Z" id="Shape" fill-rule="nonzero"></path>
                        </g>
                    </g>
                </g>
            </g>
        </g>
    </g>
</svg>