<svg width="20px" height="20px" viewBox="0 0 20 20" version="1.1" xmlns="http://www.w3.org/2000/svg" xmlns:xlink="http://www.w3.org/1999/xlink">
    <!-- Generator: Sketch 49.3 (51167) - http://www.bohemiancoding.com/sketch -->
    <desc>Created with Sketch.</desc>
    <defs></defs>
    <g id="Page-1" stroke="none" stroke-width="1" fill="none" fill-rule="evenodd">
        <g id="Menu" transform="translate(-28.000000, -521.000000)" fill="#000000">
            <g id="Side-Menu">
                <g id="Actions" transform="translate(26.000000, 314.000000)">
                    <g id="Settings" transform="translate(0.000000, 205.000000)">
                        <g id="icons/side-menu/settings">
                            <g id="noun_340961_cc_export">
                                <g id="noun_340961_cc" transform="translate(2.500000, 2.500000)" fill-rule="nonzero">
                                    <path d="M11.1064718,19 L7.93319415,19 C7.7348643,19 7.53653445,18.8416667 7.53653445,18.64375 L7.41753653,16.74375 C6.90187891,16.5854167 6.38622129,16.3875 5.91022965,16.1104167 L4.4822547,17.3770833 C4.32359081,17.4958333 4.08559499,17.4958333 3.92693111,17.3770833 L1.66597077,15.1208333 C1.50730689,14.9625 1.50730689,14.725 1.66597077,14.5666667 L2.93528184,13.1416667 C2.65762004,12.6666667 2.45929019,12.1520833 2.3006263,11.6375 L0.356993737,11.4791667 C0.158663883,11.4791667 0,11.28125 0,11.0833333 L0,7.91666667 C0,7.71875 0.158663883,7.52083333 0.356993737,7.52083333 L2.26096033,7.40208333 C2.41962422,6.8875 2.61795407,6.37291667 2.89561587,5.89791667 L1.6263048,4.47291667 C1.50730689,4.31458333 1.50730689,4.07708333 1.6263048,3.91875 L3.88726514,1.6625 C4.04592902,1.50416667 4.28392484,1.50416667 4.44258873,1.6625 L5.87056367,2.92916667 C6.34655532,2.65208333 6.86221294,2.45416667 7.37787056,2.29583333 L7.53653445,0.35625 C7.53653445,0.158333333 7.7348643,0 7.93319415,0 L11.1064718,0 C11.3048017,0 11.5031315,0.158333333 11.5031315,0.35625 L11.6221294,2.25625 C12.1377871,2.41458333 12.6534447,2.6125 13.1294363,2.88958333 L14.5574113,1.62291667 C14.7160752,1.50416667 14.954071,1.50416667 15.1127349,1.62291667 L17.3736952,3.87916667 C17.5323591,4.0375 17.5323591,4.275 17.3736952,4.43333333 L16.1043841,5.85833333 C16.3820459,6.33333333 16.5803758,6.84791667 16.7390397,7.3625 L18.6430063,7.48125 C18.8413361,7.48125 19,7.67916667 19,7.87708333 L19,11.04375 C19,11.2416667 18.8413361,11.4395833 18.6430063,11.4395833 L16.7390397,11.5583333 C16.5803758,12.0729167 16.3820459,12.5875 16.1043841,13.0625 L17.3736952,14.4875 C17.4926931,14.6458333 17.4926931,14.8833333 17.3736952,15.0416667 L15.1127349,17.2979167 C14.954071,17.45625 14.7160752,17.45625 14.5574113,17.2979167 L13.1294363,16.03125 C12.6534447,16.3083333 12.1377871,16.50625 11.6221294,16.6645833 L11.5031315,18.64375 C11.5031315,18.8416667 11.3048017,19 11.1064718,19 Z M8.29018789,18.2083333 L10.7098121,18.2083333 L10.82881,16.3875 C10.82881,16.2291667 10.9478079,16.0708333 11.1461378,16.03125 C11.7807933,15.8729167 12.4154489,15.5958333 12.9707724,15.2791667 C13.1294363,15.2 13.3277662,15.2 13.4467641,15.31875 L14.8350731,16.5458333 L16.5407098,14.84375 L15.3110647,13.4583333 C15.1920668,13.3395833 15.1920668,13.1416667 15.2713987,12.9833333 C15.6283925,12.4291667 15.8663883,11.7958333 16.0250522,11.1625 C16.0647182,11.0041667 16.223382,10.8854167 16.3820459,10.8458333 L18.2066806,10.7270833 L18.2066806,8.3125 L16.3820459,8.19375 C16.223382,8.19375 16.0647182,8.075 16.0250522,7.87708333 C15.8663883,7.24375 15.5887265,6.61041667 15.2713987,6.05625 C15.1920668,5.89791667 15.1920668,5.7 15.3110647,5.58125 L16.5407098,4.19583333 L14.8350731,2.49375 L13.4467641,3.72083333 C13.3277662,3.83958333 13.1294363,3.83958333 12.9707724,3.76041667 C12.4154489,3.40416667 11.7807933,3.16666667 11.1461378,3.00833333 C10.9874739,2.96875 10.868476,2.81041667 10.82881,2.65208333 L10.7494781,0.791666667 L8.32985386,0.791666667 L8.21085595,2.6125 C8.21085595,2.77083333 8.09185804,2.92916667 7.89352818,2.96875 C7.25887265,3.12708333 6.62421712,3.40416667 6.06889353,3.72083333 C5.91022965,3.8 5.71189979,3.8 5.59290188,3.68125 L4.2045929,2.45416667 L2.49895616,4.15625 L3.72860125,5.54166667 C3.84759916,5.66041667 3.84759916,5.85833333 3.76826722,6.01666667 C3.41127349,6.57083333 3.17327766,7.20416667 3.01461378,7.8375 C2.97494781,7.99583333 2.81628392,8.11458333 2.65762004,8.15416667 L0.793319415,8.27291667 L0.793319415,10.6875 L2.61795407,10.80625 C2.77661795,10.80625 2.93528184,10.925 2.97494781,11.1229167 C3.13361169,11.75625 3.41127349,12.3895833 3.72860125,12.94375 C3.80793319,13.1020833 3.80793319,13.3 3.68893528,13.41875 L2.45929019,14.8041667 L4.16492693,16.50625 L5.55323591,15.2791667 C5.67223382,15.1604167 5.87056367,15.1604167 6.02922756,15.2395833 C6.58455115,15.5958333 7.21920668,15.8333333 7.85386221,15.9916667 C8.0125261,16.03125 8.13152401,16.1895833 8.17118998,16.3479167 L8.29018789,18.2083333 Z" id="Shape"></path>
                                    <path d="M9.5,12 C8.11538462,12 7,10.8846154 7,9.5 C7,8.11538462 8.11538462,7 9.5,7 C10.8846154,7 12,8.11538462 12,9.5 C12,10.8846154 10.8846154,12 9.5,12 Z M9.5,7.76923077 C8.53846154,7.76923077 7.76923077,8.53846154 7.76923077,9.5 C7.76923077,10.4615385 8.53846154,11.2307692 9.5,11.2307692 C10.4615385,11.2307692 11.2307692,10.4615385 11.2307692,9.5 C11.2307692,8.53846154 10.4615385,7.76923077 9.5,7.76923077 Z" id="Shape"></path>
                                </g>
                            </g>
                        </g>
                    </g>
                </g>
            </g>
        </g>
    </g>
</svg>