<svg width="16px" height="12px" viewBox="0 0 16 12" version="1.1" xmlns="http://www.w3.org/2000/svg" xmlns:xlink="http://www.w3.org/1999/xlink">
    <!-- Generator: Sketch 49.3 (51167) - http://www.bohemiancoding.com/sketch -->
    <desc>Created with Sketch.</desc>
    <defs></defs>
    <g id="Page-1" stroke="none" stroke-width="1" fill="none" fill-rule="evenodd">
        <g id="Menu" transform="translate(-30.000000, -476.000000)" fill="#000000">
            <g id="Side-Menu">
                <g id="Actions" transform="translate(26.000000, 314.000000)">
                    <g id="Shift" transform="translate(0.000000, 156.000000)">
                        <g id="icons/side-menu/shift">
                            <g id="noun_182085_cc_export">
                                <g id="noun_182085_cc" transform="translate(4.000000, 6.000000)" fill-rule="nonzero">
                                    <path d="M15.7852285,3.07505428 C16.0938821,3.36241934 16.0560832,3.72454783 15.7599547,3.99934205 L14.147575,4.0489638 L0.542660087,4.0489638 C0.259280276,4.05513895 0.000950613296,3.80548642 0.000950613296,3.52429651 C0.000950613296,3.24332714 0.259280276,2.99345407 0.542660087,2.99345407 L14.1540612,2.99345407 L11.9241506,0.913971987 C11.3824411,0.29601581 12.1950053,-0.291064613 12.6673796,0.158618701 L15.7852285,3.07505428 Z M1.85891122,7.93958926 L15.4575636,7.93958926 C15.741167,7.93341411 15.999273,8.18946233 15.999273,8.46425655 C15.999273,8.74522592 15.741167,9.00149468 15.4575636,8.99509899 L1.85264869,8.99509899 L4.08233562,11.0807562 C4.33417908,11.3180585 4.27133004,11.6678366 4.10112323,11.8299344 C3.83026849,12.0859826 3.54688868,12.0235694 3.33262044,11.8361095 L0.214771529,8.91989447 C-0.0938820939,8.63252941 -0.0560832082,8.27040092 0.24004534,7.98921101 L1.85891122,7.93958926 Z" id="Shape"></path>
                                </g>
                            </g>
                        </g>
                    </g>
                </g>
            </g>
        </g>
    </g>
</svg>