<svg width="28px" height="24px" viewBox="0 0 28 24" version="1.1" xmlns="http://www.w3.org/2000/svg" xmlns:xlink="http://www.w3.org/1999/xlink">
    <!-- Generator: Sketch 49.3 (51167) - http://www.bohemiancoding.com/sketch -->
    <desc>Created with Sketch.</desc>
    <defs></defs>
    <g id="Page-1" stroke="none" stroke-width="1" fill="none" fill-rule="evenodd" opacity="0.69688666">
        <g id="campains" transform="translate(-216.000000, -3848.000000)" fill="#010002">
            <g id="Share-this" transform="translate(20.000000, 3736.000000)">
                <g id="icons/twitter" transform="translate(195.000000, 109.000000)">
                    <g id="twitter" transform="translate(1.500000, 3.500000)">
                        <path d="M27,2.72126191 C26.0062484,3.18304873 24.9399672,3.49622726 23.8196419,3.63604489 C24.9635702,2.91766358 25.8392187,1.77821005 26.2542341,0.424634745 C25.1812029,1.08990202 23.9967745,1.57297146 22.734743,1.83484035 C21.7241384,0.704223737 20.2866508,0 18.6922364,0 C15.6333785,0 13.1532127,2.60096878 13.1532127,5.80705827 C13.1532127,6.2617663 13.2021392,6.70587928 13.2966394,7.13056029 C8.69401421,6.88812337 4.61272813,4.57558049 1.88117954,1.06158686 C1.40369347,1.91798141 1.13206067,2.91585918 1.13206067,3.98105484 C1.13206067,5.99638115 2.1106358,7.77459119 3.59537352,8.81494169 C2.68765145,8.78311028 1.83392947,8.52124139 1.08653119,8.08596533 L1.08653119,8.15851134 C1.08653119,10.9717975 2.99643137,13.3197343 5.52887668,13.8541134 C5.06489063,13.9850478 4.57562512,14.0575939 4.06946253,14.0575939 C3.71180018,14.0575939 3.36591726,14.0204418 3.02678436,13.9496539 C3.7320061,16.2586805 5.7769065,17.9377875 8.19971928,17.9838228 C6.3049956,19.5408785 3.91593287,20.4662566 1.32106098,20.4662566 C0.873972016,20.4662566 0.433588944,20.4379414 0,20.3866318 C2.4514893,22.0374699 5.36189111,23 8.48992564,23 C18.6788246,23 24.2482455,14.1496181 24.2482455,6.47412994 L24.2296719,5.72215908 C25.3178796,4.908191 26.2593076,3.88551433 27,2.72126191 Z" id="Shape" fill-rule="nonzero"></path>
                    </g>
                </g>
            </g>
        </g>
    </g>
</svg>