<svg width="42px" height="42px" viewBox="0 0 42 42" version="1.1" xmlns="http://www.w3.org/2000/svg" xmlns:xlink="http://www.w3.org/1999/xlink">
    <!-- Generator: Sketch 49.3 (51167) - http://www.bohemiancoding.com/sketch -->
    <desc>Created with Sketch.</desc>
    <defs></defs>
    <g id="Page-1" stroke="none" stroke-width="1" fill="none" fill-rule="evenodd">
        <g id="Pitch-3" transform="translate(-33.000000, -333.000000)" fill="#DC4234">
            <g id="Upload-Video" transform="translate(34.000000, 334.000000)">
                <g id="icons/uploadvideo">
                    <g transform="translate(8.000000, 8.000000)" fill-rule="evenodd" id="Group_export" stroke-width="1">
                        <g>
                            <g id="Group" transform="translate(5.000000, 5.000000)" fill-rule="nonzero">
                                <path d="M12.9230769,10.5714286 L12.9230769,12.2857143 C12.9230769,12.6070658 12.6936666,12.8571429 12.4065934,12.8571429 L1.59340658,12.8571429 C1.30540157,12.8571429 1.07692308,12.6083401 1.07692308,12.2857143 L1.07692308,10.5714286 C1.07692308,10.2558373 0.835845635,10 0.538461538,10 C0.241077442,10 0,10.2558373 0,10.5714286 L0,12.2857143 C0,13.233019 0.704327562,14 1.59340658,14 L12.4065934,14 C13.294998,14 14,13.2314869 14,12.2857143 L14,10.5714286 C14,10.2558373 13.7589226,10 13.4615385,10 C13.1641544,10 12.9230769,10.2558373 12.9230769,10.5714286 Z" id="Shape"></path>
                                <path d="M9.20625589,6.90152622 L7.46142029,9.07376719 L7.46142029,0.554072432 C7.46142029,0.24822445 7.25488307,0 6.99988462,0 C6.74511693,0 6.53834895,0.24822445 6.53834895,0.554072432 L6.53834895,9.07376719 L4.79374411,6.90152622 C4.61674519,6.68128243 4.32459311,6.67491059 4.14113268,6.88739737 C3.95767225,7.09988415 3.95236459,7.45033496 4.12936352,7.67085579 L6.6678097,10.8310079 C6.68696343,10.8534478 6.69527107,10.8595426 6.70288641,10.8670226 C6.72434782,10.8880774 6.73219393,10.8977736 6.74096311,10.9049766 C6.7596553,10.9191054 6.77211676,10.9254773 6.78411669,10.9332343 C6.79611662,10.9409913 6.80719347,10.9501335 6.81965494,10.9565053 C6.84088558,10.9662016 6.85427011,10.9698031 6.86788541,10.9747897 C6.88034688,10.9794993 6.89257757,10.9853171 6.90503904,10.9886415 C6.92765428,10.9930741 6.94150035,10.9936282 6.95557719,10.9952904 C6.96919249,10.9969526 6.98234626,11 6.99596156,11 C7.01742297,11 7.03080751,10.9969526 7.04442281,10.9952904 C7.05826888,10.9936282 7.07234572,10.9930741 7.08619179,10.9900267 C7.10742243,10.9853171 7.11942235,10.9794993 7.13188382,10.9747897 C7.14549912,10.9698031 7.15911442,10.9662016 7.17226819,10.9595527 C7.19234499,10.9504105 7.20342185,10.9412683 7.21496024,10.9337883 C7.22765247,10.9257543 7.24011393,10.9191054 7.25211386,10.9096862 C7.2675753,10.8977736 7.27565218,10.8880774 7.28395982,10.8800433 C7.30334432,10.8609278 7.31257503,10.854279 7.32042114,10.8451368 C7.32672879,10.8371951 8.17680057,9.7791014 9.87063648,7.67085579 C10.0476354,7.45033496 10.0423278,7.09988415 9.85886732,6.88739737 C9.67540689,6.67491059 9.38302405,6.68128243 9.20625589,6.90152622 Z" id="Shape"></path>
                            </g>
                        </g>
                    </g>
                    <path d="M20,2.05128205 C29.8965517,2.05128205 37.9487179,10.1028294 37.9487179,20 C37.9487179,29.8965517 29.8965517,37.9487179 20,37.9487179 C10.1028294,37.9487179 2.05128205,29.8965517 2.05128205,20 C2.05128205,10.1028294 10.1028294,2.05128205 20,2.05128205 Z M0,20 C0,31.045625 8.954375,40 20,40 C31.04625,40 40,31.045625 40,20 C40,8.95375 31.04625,0 20,0 C8.954375,0 0,8.95375 0,20 Z" id="Shape" stroke="#FFFFFF" stroke-width="0.7" fill-rule="nonzero"></path>
                </g>
            </g>
        </g>
    </g>
</svg>