<svg width="22px" height="20px" viewBox="0 0 22 20" version="1.1" xmlns="http://www.w3.org/2000/svg" xmlns:xlink="http://www.w3.org/1999/xlink">
    <!-- Generator: Sketch 49.3 (51167) - http://www.bohemiancoding.com/sketch -->
    <desc>Created with Sketch.</desc>
    <defs></defs>
    <g id="Symbols" stroke="none" stroke-width="1" fill="none" fill-rule="evenodd">
        <g id="icons/side-menu/dashboard" transform="translate(-1.000000, -2.000000)" fill="#000000" fill-rule="nonzero" stroke="#FFFFFF" stroke-width="0.5">
            <g id="icons/side-menu/Queue_export">
                <g id="icons/side-menu/Queue">
                    <g id="Combined-Shape">
                        <path d="M11.9931667,10.3284963 L18.9851026,7.38452331 L11.9931667,4.44055031 L4.6332342,7.38452331 L11.9931667,10.3284963 Z M12.2571837,20.9503294 C12.0978677,21.0141292 11.9147127,21.0191604 11.7427913,20.9503918 L2.51202207,17.2580841 C1.93176731,17.0259822 1.93176731,16.2046029 2.51202207,15.972501 L4.3513335,15.2367764 C4.70633747,15.0947748 5.10924009,15.2674474 5.25124168,15.6224513 C5.39324327,15.9774553 5.22057072,16.3803579 4.86556675,16.5223595 L4.6332342,16.6152925 L12,19.5619989 L19.3667658,16.6152925 L19.1344333,16.5223595 C18.7794293,16.3803579 18.6067567,15.9774553 18.7487583,15.6224513 C18.8907599,15.2674474 19.2936625,15.0947748 19.6486665,15.2367764 L21.4879779,15.972501 C22.0682327,16.2046029 22.0682327,17.0259822 21.4879779,17.2580841 L12.2572087,20.9503918 Z M12.2571837,16.3349448 C12.0978677,16.3987446 11.9147127,16.4037758 11.7427913,16.3350072 L2.51202207,12.6426995 C1.93176731,12.4105976 1.93176731,11.5892183 2.51202207,11.3571164 L4.3513335,10.6213918 C4.70633747,10.4793902 5.10924009,10.6520628 5.25124168,11.0070667 C5.39324327,11.3620707 5.22057072,11.7649733 4.86556675,11.9069749 L4.6332342,11.9999079 L12,14.9466142 L19.3667658,11.9999079 L19.1344333,11.9069749 C18.7794293,11.7649733 18.6067567,11.3620707 18.7487583,11.0070667 C18.8907599,10.6520628 19.2936625,10.4793902 19.6486665,10.6213918 L21.4879779,11.3571164 C22.0682327,11.5892183 22.0682327,12.4105976 21.4879779,12.6426995 L12.2572087,16.3350072 Z M2.51202207,6.74173176 L11.7427913,3.04942406 C11.911852,2.9817998 12.1007478,2.98350143 12.2685628,3.05416036 L21.0377935,6.74646805 C21.602664,6.98430825 21.602664,7.78473838 21.0377935,8.02257857 L12.2685628,11.7148863 C12.1007478,11.7855452 11.911852,11.7872468 11.7427913,11.7196226 L2.51202207,8.02731487 C1.93176731,7.79521296 1.93176731,6.97383366 2.51202207,6.74173176 Z"></path>
                    </g>
                </g>
            </g>
        </g>
    </g>
</svg>