<svg width="18px" height="14px" viewBox="0 0 18 14" version="1.1" xmlns="http://www.w3.org/2000/svg" xmlns:xlink="http://www.w3.org/1999/xlink">
    <!-- Generator: Sketch 49.3 (51167) - http://www.bohemiancoding.com/sketch -->
    <desc>Created with Sketch.</desc>
    <defs></defs>
    <g id="Page-1" stroke="none" stroke-width="1" fill="none" fill-rule="evenodd">
        <g id="Welcome-" transform="translate(-53.000000, -540.000000)">
            <g id="Button-2" transform="translate(35.000000, 522.000000)">
                <g id="email" transform="translate(15.000000, 13.000000)">
                    <g>
                        <rect id="Rectangle" x="0" y="0" width="24" height="24"></rect>
                        <path d="M3,16.9583105 L3,7.04241856 C3.0140613,7.00358986 3.02580229,6.96389972 3.03515625,6.92357368 C3.22078125,5.82553446 4.14257812,5.00419238 5.2190625,5.00309872 C9.7396875,4.99896709 14.2601953,4.99896709 18.7805859,5.00309872 C19.8053906,5.00309872 20.6930859,5.74970705 20.9342578,6.78249095 C20.9546484,6.86961956 20.9792578,6.95601906 21,7.04278312 L21,16.9583105 C20.9872436,16.9845497 20.9769993,17.0120228 20.9694141,17.0403354 C20.8024219,18.0085931 20.1530859,18.7537432 19.2309375,18.9331042 C18.7992187,19.0176809 18.3457031,18.9965367 17.9023828,18.9969013 C13.6925391,19.0010329 9.48246094,19.0010329 5.27214844,18.9969013 C4.23714844,18.9969013 3.36773437,18.3181001 3.08648437,17.3050022 C3.05449219,17.1927193 3.02882812,17.0753327 3,16.9583105 Z M9.02111073,11.8562896 C8.72963392,12.1030932 8.45418833,12.3361508 8.18311489,12.57202 L5.21442354,15.1103478 C5.0351653,15.2631161 4.95245876,15.436191 5.02787838,15.6464426 C5.16268641,16.0282071 5.68370121,16.1200556 6.03383774,15.8223292 C7.26727045,14.7686759 8.49924578,13.7123149 9.72976373,12.6532465 C9.77519158,12.6073351 9.81636653,12.5584504 9.85291269,12.5070388 C9.95492957,12.5870156 10.0223336,12.6370012 10.0890089,12.6885488 L11.5726259,13.8444642 C11.8546297,14.0631509 12.1490213,14.0606516 12.4324825,13.8413401 C12.9457246,13.443122 13.4587238,13.0442791 13.9714801,12.6448114 C14.0181163,12.6073223 14.0698535,12.5704579 14.1277845,12.5248461 C14.591597,12.9234808 15.0452078,13.3143051 15.4988186,13.7041923 L17.9705419,15.8235789 C18.1381411,15.9675997 18.3301515,16.0353926 18.5640616,15.9816581 C19.0169437,15.8763761 19.1470152,15.4243194 18.8038013,15.1278427 C17.9779503,14.4147158 17.1495489,13.703984 16.3185971,12.9956474 C15.8770097,12.6173194 15.4325076,12.2399286 14.9832689,11.8544152 C15.0419287,11.8069289 15.089658,11.7675653 15.1384804,11.7294514 L16.9434505,10.3236083 L18.7899561,8.88402494 C18.967757,8.74562749 19.0384401,8.57536428 18.9797804,8.3772966 C18.9339298,8.19865397 18.7722755,8.05858392 18.5644259,8.01740077 C18.3312445,7.96429114 18.1425133,8.03739498 17.9683559,8.17360556 C16.0305208,9.68712582 14.090014,11.1996047 12.1468352,12.7110423 C12.1001989,12.748219 12.0499192,12.7838337 11.998182,12.8225725 L9.22113669,10.6588237 C8.15238838,9.82823081 7.08303282,8.99638825 6.01307001,8.16329604 C5.84437781,8.0314592 5.65601092,7.96804006 5.43011639,8.02239932 C5.2239009,8.06497616 5.06407543,8.20468707 5.01840539,8.38229516 C4.9622961,8.58223729 5.03662269,8.75031364 5.21442354,8.88808626 C5.97906439,9.48249755 6.74297653,10.0776378 7.50615999,10.673507 L9.02111073,11.8562896 Z" id="Shape" fill="#FFFFFF" fill-rule="nonzero"></path>
                    </g>
                </g>
            </g>
        </g>
    </g>
</svg>