<svg width="18px" height="18px" viewBox="0 0 18 18" version="1.1" xmlns="http://www.w3.org/2000/svg" xmlns:xlink="http://www.w3.org/1999/xlink">
    <!-- Generator: Sketch 49.3 (51167) - http://www.bohemiancoding.com/sketch -->
    <desc>Created with Sketch.</desc>
    <defs></defs>
    <g id="Page-1" stroke="none" stroke-width="1" fill="none" fill-rule="evenodd">
        <g id="Menu" transform="translate(-29.000000, -574.000000)" fill="#000000">
            <g id="Side-Menu">
                <g id="Actions" transform="translate(26.000000, 314.000000)">
                    <g id="Help" transform="translate(0.000000, 257.000000)">
                        <g id="icons/side-menu/help">
                            <g id="noun_629634_cc_export">
                                <g id="noun_629634_cc" transform="translate(3.000000, 2.000000)" fill-rule="nonzero">
                                    <g id="Group" transform="translate(0.000000, 0.127564)">
                                        <path d="M9,0.872436 C4.03428273,0.872436 0,4.90671873 0,9.872436 C0,14.8381451 4.03428273,18.872436 9,18.872436 C13.9657173,18.872436 18,14.8381451 18,9.872436 C18,4.90671873 13.9657173,0.872436 9,0.872436 Z M9,1.69061782 C13.5235383,1.69061782 17.1818182,5.34889691 17.1818182,9.872436 C17.1818182,14.3959792 13.5235383,18.0542542 9,18.0542542 C4.47646173,18.0542542 0.818181818,14.3959792 0.818181818,9.872436 C0.818181818,5.34889691 4.47646173,1.69061782 9,1.69061782 Z M9,4.96334509 C7.42330207,4.96334509 6.13636364,6.25028577 6.13636364,7.82698145 C6.13427715,7.97451433 6.21178989,8.11174201 6.33922071,8.18611734 C6.46665153,8.26049267 6.62425756,8.26049267 6.75168838,8.18611734 C6.8791192,8.11174201 6.95663194,7.97451433 6.95454545,7.82698145 C6.95454545,6.69246395 7.86548066,5.78152691 9,5.78152691 C10.1345193,5.78152691 11.0454545,6.69246395 11.0454545,7.82698145 C11.0534359,8.74574236 10.5601465,9.24038236 9.95241477,9.81490759 C9.648549,10.1021508 9.32374616,10.3952235 9.05752841,10.7609303 C8.79131066,11.1266167 8.59090909,11.5824974 8.59090909,12.122436 L8.59090909,12.3269815 C8.58882261,12.4745143 8.66633535,12.611742 8.79376617,12.6861173 C8.92119698,12.7604927 9.07880302,12.7604927 9.20623383,12.6861173 C9.33366465,12.611742 9.41117739,12.4745143 9.40909091,12.3269815 L9.40909091,12.122436 C9.40909091,11.7718451 9.51897927,11.5108451 9.71590909,11.2403337 C9.91283891,10.9698224 10.2028081,10.7044246 10.5149148,10.4093678 C11.13797,9.82035873 11.871566,9.05561236 11.8636364,7.82698145 C11.8636216,7.82469055 11.8636562,7.82285986 11.8636364,7.82058941 C11.8601037,6.24684941 10.5745298,4.96334509 9,4.96334509 Z M9,13.5542542 C8.66109784,13.5542542 8.38636364,13.8289792 8.38636364,14.1678905 C8.38636364,14.5067815 8.66109784,14.7815269 9,14.7815269 C9.33890216,14.7815269 9.61363636,14.5067815 9.61363636,14.1678905 C9.61363636,13.8289792 9.33890216,13.5542542 9,13.5542542 Z" id="Shape"></path>
                                    </g>
                                </g>
                            </g>
                        </g>
                    </g>
                </g>
            </g>
        </g>
    </g>
</svg>