<svg width="189px" height="59px" viewBox="0 0 189 59" version="1.1" xmlns="http://www.w3.org/2000/svg" xmlns:xlink="http://www.w3.org/1999/xlink">
    <!-- Generator: Sketch 49.3 (51167) - http://www.bohemiancoding.com/sketch -->
    <desc>Created with Sketch.</desc>
    <defs></defs>
    <g id="Page-1" stroke="none" stroke-width="1" fill="none" fill-rule="evenodd">
        <g id="Welcome-" transform="translate(-93.000000, -217.000000)" fill-rule="nonzero">
            <g id="Logo" transform="translate(93.000000, 217.000000)">
                <path d="M40.7777061,38.8440694 C39.5477698,38.8440694 37.7344759,37.9381795 37.7344759,37.5317216 C37.7344759,37.4066202 37.9490442,37.3131592 38.3489651,37.3131592 C40.3480905,37.3131592 44.2835992,34.656823 44.8367831,30.8127535 C41.4855899,31.1880578 36.6889342,37.1257504 36.6889342,41.4376116 C36.6889342,43.2503651 37.5500812,44.3446374 38.9337595,44.3446374 C43.5455416,44.3446374 51.2019908,32.3129969 52.0937903,30.5937044 C52.431927,29.9686841 52.7710216,29.6566607 53.1082004,29.6566607 C53.6005581,29.6566607 54,30.1877332 54,30.8127535 C54,31.09411 53.9085211,31.4066202 53.8156053,31.5940289 C53.4769897,32.2808697 45.1749198,47 38.0108284,47 C34.597851,47 31,43.6246958 31,39.281681 C31,33.6564985 37.0883762,26 42.0076423,26 C44.7443463,26 47.8804923,28.3749797 47.8804923,30.9062145 C47.8804923,35.2190492 43.1762734,38.8440694 40.7777061,38.8440694 Z" id="Shape" fill="#000000"></path>
                <path d="M64.1246665,18.6424484 C61.9407201,18.6424484 53.0824973,39.8415171 53.0824973,43.7295832 C53.0824973,43.9766429 53.1135924,44.1612167 53.1762685,44.1612167 C53.612572,44.1612167 62.0344913,32.4657754 62.7832035,31.2626812 C63.1568308,30.6455126 63.7189723,30.2133984 64.2495329,30.2133984 C64.6542553,30.2133984 65.0288543,30.4912204 64.9982451,30.7993241 C64.9044739,32.1576718 54.5167598,47 53.3633251,47 C50.1197152,47 47,45.2100188 47,43.1124146 C47,39.5016898 56.3882974,15 59.0090331,15 C59.7261644,15 64.6231602,16.9130304 64.6231602,18.085843 C64.623646,18.3333834 64.3739133,18.6424484 64.1246665,18.6424484 Z" id="Shape" fill="#000000"></path>
                <path d="M117.073977,26 C118.053088,26 122.429057,28.0307821 122.429057,29.3757128 C122.429057,29.656576 122.215025,29.9374392 121.970009,29.9374392 C120.500866,29.9374392 116.30842,40.0003245 116.30842,43.624774 C116.30842,43.9377637 116.338928,44.1246813 116.399467,44.1246813 C116.82753,44.1246813 125.091343,32.3123638 125.825915,31.0623522 C126.192962,30.4680126 126.743057,30.0313847 127.26455,30.0313847 C127.662106,30.0313847 128.029153,30.3122479 127.998169,30.6247508 C127.907122,31.9998609 117.716071,47 116.55296,47 C113.400641,47 110.309339,45.1872885 110.309339,43.5941078 C110.309339,40.6253303 112.146483,35.2499884 113.828705,31.7189977 C109.850291,36.8752955 105.811815,43.9689166 105.811815,46.0001854 C105.811815,46.5623986 105.536291,47 105.199275,47 C102.016925,47 98.9566067,45.1872885 98.9566067,43.5941078 C98.9566067,40.6253303 100.761813,35.2499884 102.444988,31.7189977 C98.3435896,36.9371146 94.089652,44.1874739 94.089652,46.3438413 C94.089652,46.8437486 93.8756204,47 93.5390807,47 C92.4064769,47 88,45.1566223 88,43.0314079 C88,40.7187891 93.2020643,26.0004868 94.763208,26.0004868 C96.170859,26.0004868 100.241273,27.4695424 100.241273,28.6256085 C100.241273,28.8441658 100.118288,29.000904 99.965749,29.000904 C99.2311773,29.000904 97.0899079,33.5940151 95.5592721,38.0323351 C98.8031141,32.4384359 103.883624,26.0004868 105.658322,26.0004868 C106.699402,26.0004868 111.013403,28.0312688 111.013403,29.3761995 C111.013403,29.6570627 110.829879,29.9379259 110.585339,29.9379259 C109.39172,29.9379259 106.668418,36.4065412 105.536291,41.2196699 C108.413562,35.1248899 114.961308,26 117.073977,26 Z" id="Shape" fill="#000000"></path>
                <path d="M133.459617,43.5941078 C133.459617,42.5938065 133.612077,41.3442817 133.885748,40.0003245 C131.879143,43.874971 129.842709,47 127.897183,47 C126.165196,47 122,44.4693106 122,43.1248667 C122,34.8128738 127.381091,26 131.72763,26 C133.247025,26 137.380498,27.1249131 137.776326,28.5623291 C138.779629,26.9998146 139.660774,26 140.299024,26 C141.210944,26 145.344891,28.0307821 145.344891,29.2506143 C145.344891,29.5932966 145.040918,29.9374392 144.676812,29.9374392 C142.792365,29.9374392 139.387103,40.0626304 139.387103,43.5624681 C139.387103,43.9377637 139.417405,44.1246813 139.478484,44.1246813 C139.903668,44.1246813 148.110957,31.9375551 148.810285,30.7493626 C149.205167,30.0927171 149.752509,29.6560892 150.268601,29.6560892 C150.66443,29.6560892 151.028535,29.9369524 150.998233,30.2499421 C150.907798,31.6245654 140.754511,46.9995132 139.660774,46.9995132 C136.499827,47 133.459617,45.1877753 133.459617,43.5941078 Z M127.74567,45.0938297 C129.143854,44.5622827 131.54534,40.1560892 133.825143,35.6559501 C135.041037,33.2503593 136.378616,30.812642 137.503129,29.0004172 C132.760761,29.000904 127.74567,36.7506838 127.74567,45.0938297 Z" id="Shape" fill="#000000"></path>
                <path d="M160.812395,47 C157.700611,47 154.709048,45.2100457 154.709048,43.6368661 C154.709048,43.0197068 154.769159,42.3097813 154.889381,41.5388128 C153.182979,44.6553713 151.448152,47 149.803724,47 C148.098254,47 144,44.5010815 144,43.173516 C144,34.9658736 149.294879,26.2636385 153.99098,26.2636385 C155.456939,26.2636385 157.700611,27.1581351 158.808234,27.9608267 C161.530463,21.1408315 164.01318,15 165.449317,15 C166.226564,15 170.893774,16.9130017 170.893774,18.0550348 C170.893774,18.271329 170.744662,18.4559 170.534973,18.4559 C168.410591,18.4559 160.572884,39.778659 160.572884,43.728671 C160.572884,43.975727 160.602706,44.160298 160.662817,44.160298 C161.081263,44.160298 169.128659,32.2496996 169.846727,31.0764239 C170.205528,30.4280221 170.773553,29.9968758 171.282864,29.9968758 C171.671487,29.9968758 172,30.2742129 172,30.5832733 C171.881176,31.9416006 161.889264,47 160.812395,47 Z M158.299389,29.2571497 C154.080913,29.6580149 149.653214,37.1259313 149.653214,45.1490026 C152.04693,44.5928863 155.278004,36.7861091 158.299389,29.2571497 Z" id="Shape" fill="#000000"></path>
                <path d="M175.778592,38.8440694 C174.548605,38.8440694 172.733798,37.9381795 172.733798,37.5317216 C172.733798,37.4066202 172.949334,37.3131592 173.349271,37.3131592 C175.347522,37.3131592 179.284152,34.656823 179.837838,30.8127535 C176.485069,31.1880578 171.688692,37.1257504 171.688692,41.4376116 C171.688692,43.2503651 172.549396,44.3446374 173.933132,44.3446374 C178.546064,44.3446374 186.202832,32.3129969 187.094669,30.5937044 C187.43282,29.9686841 187.77097,29.6566607 188.1096,29.6566607 C188.601499,29.6566607 189,30.1877332 189,30.8127535 C189,31.09411 188.908517,31.4066202 188.816556,31.5940289 C188.477926,32.2808697 180.17551,47 173.010641,47 C169.598001,47 166,43.6246958 166,39.281681 C166,33.6564985 172.088151,26 177.007622,26 C179.744919,26 182.881674,28.3749797 182.881674,30.9062145 C182.881674,35.2190492 178.175823,38.8440694 175.778592,38.8440694 Z" id="Shape" fill="#000000"></path>
                <path d="M61.6375063,26.7722684 C65.5154319,27.1405771 69.3683069,27.6675358 73.2521268,27.9924668 C74.895149,28.1306328 73.4795466,26.3236306 72.3581654,26.2296456 C68.4743456,25.9039112 64.6214706,25.3773542 60.743545,25.0094471 C59.1073994,24.8540104 60.5220194,26.6666357 61.6375063,26.7722684 Z" id="Shape" fill="#000000"></path>
                <path d="M78.7331117,14.2800187 C76.422559,12.1555278 72.9692694,11.3816436 71.9244813,12.5327071 C70.0468911,14.6005258 67.1992758,18.9876161 65.5265738,22.5917736 C65.1669548,23.2561235 64.8068625,23.9509525 64.4491361,24.6734032 C63.3646007,26.6874072 62.6661825,27.9070488 62.4948903,28.6028303 C61.9620862,29.7786581 61.3975789,31.0987856 60.8103588,32.5117791 C60.5321272,33.1827963 60.2501101,33.8733392 59.9695126,34.5753117 C57.4621158,40.5306487 53.7689224,52.0374741 53.0861193,55.1906357 C53.0421133,55.3949411 53.0160882,55.5878169 53,55.7754541 C53.6326457,58.3857061 57.9428697,59.418663 58.3431826,58.8471792 C58.5196798,58.5952502 58.4340337,58.2909351 58.4354532,58.039006 C58.4449169,56.7341181 60.7365422,47.1498593 67.4704097,30.3358547 C68.1186704,28.717127 69.2249723,26.570253 70.4651849,24.4424285 C72.4393045,21.2216413 74.7309298,18.3261237 76.3406984,16.5530953 C76.4059976,16.4811836 76.4627796,16.4249877 76.5148297,16.3768878 C76.6042613,16.3330741 76.686122,16.3064048 76.7608849,16.2954514 C77.0088328,16.9117014 76.3317079,22.9713341 76.0582081,24.3281318 C75.9380196,25.0043876 76.0544227,25.6915968 76.4358082,26.0421068 C76.7268157,26.3102279 77.1805982,26.3545179 77.3627737,26.1087799 C78.1969953,25.0520112 79.5853143,15.0639039 78.7331117,14.2800187 Z" id="Shape" fill="#000000"></path>
                <ellipse id="Oval" fill="#DC4234" cx="78.5" cy="36" rx="5.5" ry="5"></ellipse>
                <path d="M35.4689007,0 C28.5374317,0 19.9164434,6.34478115 19.147163,16.87462 C19.1345442,17.046999 19.0789279,17.3176767 19.0901447,17.4838824 L19.100894,17.4838824 C18.9116118,19.8007888 18.9943351,22.3076446 19.2719491,24.8254224 C19.4088866,26.0881103 19.8664355,31.78279 19.6220044,34.5935646 C19.373367,37.4579999 18.0348377,44.837055 11.6109256,45.2174284 C7.84537737,45.4396691 3.29138683,43.7491204 3.29138683,38.4675804 C3.29138683,35.1334955 4.97342828,32.5563585 7.56869814,31.7485992 C8.37583501,31.4973912 9.27130359,31.4171376 10.2317357,31.5391801 C10.2985687,31.5477278 10.0172158,30.9470131 9.52601674,30.2726932 C8.79085385,29.2631127 7.58739268,28.0873266 6.37692106,28.5417803 C-0.244685879,31.0267918 -0.939188132,38.8204112 0.84053231,42.548166 C5.17532934,51.6225185 20.4754103,51.6894756 26.7581786,39.1233803 C27.7214149,37.6555472 29.3856965,32.9286591 27.4148244,22.6196363 C27.0675733,20.8027713 26.77921,19.0604615 26.7609828,17.2811115 C26.9030613,8.34494717 33.0909549,4.23681891 39.2190259,4.23681891 C39.2162217,4.65423247 38.1081027,9.30846494 34.6580249,9.30846494 C34.237865,9.30846494 34.0579301,9.43050736 34.0579301,9.6142833 C34.0579301,10.3455881 38.257659,11.5954544 39.6985409,11.5954544 C42.1021917,10.9667222 43.0018665,9.32366088 42.9999971,8.01775952 C42.9999971,3.62755656 39.5798306,0 35.4689007,0 Z" id="Shape" fill="#000000"></path>
            </g>
        </g>
    </g>
</svg>